# xmcd
#
# Track frame offsets:
#	150
#	11733
#	24468
#	38711
#	53246
#	65164
#	79501
#	91354
#	102194
#	112556
#
# Disc length: 1653 seconds
#
# Revision: 1
# Processed by: cddbd v1.5.2PL0 Copyright (c) Steve Scherf et al.
# Submitted via: audiograbber 1.83.01
#
DISCID=7006730a
DTITLE=Various Artist - All Star Country Western Cavalcade CD3
DYEAR=1969
DGENRE=Country
TTITLE0=Charlie Louvin - The Proof is in the Kissing
TTITLE1=Buck Owens - Your Tender Loving Care
TTITLE2=Wanda Jackson - Santo Domingo
TTITLE3=Tex Ritter - I Dreamed of a Hill-Billy Heaven
TTITLE4=¨Ferlin Husky - Timber I'm Falling
TTITLE5=Merle Haggard - Branded Man
TTITLE6=Wynn Stewart - Built in Love
TTITLE7=Bobby Austin - Mary's Merry-Go-Round
TTITLE8=Sonny James - You're the Only World I Know
TTITLE9=Glen Campbell - Less of Me
EXTD=
EXTT0=
EXTT1=
EXTT2=
EXTT3=
EXTT4=
EXTT5=
EXTT6=
EXTT7=
EXTT8=
EXTT9=
PLAYORDER=
